# xmcd
# 
# Track frame offsets:
#     150
#     11625
#     35047
#     47897
#     61427
#     76465
#     91065
#     103402
#     117017
#     129987
#     141802
#     155077
#     168222
#     181645
# 
# Disc length: 2615
# 
# Revision: 4
# Processed by: cddbd v1.5.2PL0 Copyright (c) Steve Scherf et al.
# Submitted via: BonkEnc v1.0.8
# 
DISCID=b50a350e
DTITLE=Various Artist - Blues Festival  CD 2
DYEAR=1988
DGENRE=Blues
TTITLE0=John Lee Hooker - Boogie Chillen
TTITLE1=Lightnin' Hopkins - Realy Nothin' But The Blues
TTITLE2=Muddy Waters - Hoochie Coochie
TTITLE3=Howlin' Wolf - I'm The Wolf
TTITLE4=Johnny Otis - Sittin' Here All Alone
TTITLE5=Big Bill Broozy - Lonesome Road Blues
TTITLE6=Otis Spann - I'm Leaving You
TTITLE7=Albert King - Bad Luck Blues
TTITLE8=Willie Mabon - Lonely Blues
TTITLE9=T-Bone Walker - I Get So Weary
TTITLE10=Elmore James - Dust My Broom
TTITLE11=Sonny Terry and Brownie McGhee - Walk On
TTITLE12=Sonny Boy Williamson - Unseen Eye
TTITLE13=B. B. King - Rock Me Baby
EXTD=YEAR: 1988
EXTT0=
EXTT1=
EXTT2=
EXTT3=
EXTT4=
EXTT5=
EXTT6=
EXTT7=
EXTT8=
EXTT9=
EXTT10=
EXTT11=
EXTT12=
EXTT13=
PLAYORDER=
